<?xml version="1.0" encoding="UTF-8" standalone="no"?>
<!DOCTYPE svg PUBLIC "-//W3C//DTD SVG 1.1//EN"
 "http://www.w3.org/Graphics/SVG/1.1/DTD/svg11.dtd">
<!-- Generated by graphviz version 2.40.1 (20161225.0304)
 -->
<!-- Title: g Pages: 1 -->
<svg width="577pt" height="47pt"
 viewBox="0.00 0.00 577.24 47.03" xmlns="http://www.w3.org/2000/svg" xmlns:xlink="http://www.w3.org/1999/xlink">
<g id="graph0" class="graph" transform="scale(1 1) rotate(0) translate(4 43.0322)">
<title>g</title>
<polygon fill="#ffffff" stroke="transparent" points="-4,4 -4,-43.0322 573.2384,-43.0322 573.2384,4 -4,4"/>
<!-- StreamGraph -->
<g id="node1" class="node">
<title>StreamGraph</title>
<ellipse fill="none" stroke="#000000" cx="57.2561" cy="-19.5161" rx="57.0133" ry="18"/>
<text text-anchor="middle" x="57.2561" y="-15.3161" font-family="Times,serif" font-size="14.00" fill="#000000">StreamGraph</text>
</g>
<!-- JobGraph -->
<g id="node2" class="node">
<title>JobGraph</title>
<ellipse fill="none" stroke="#000000" cx="195.0041" cy="-19.5161" rx="44.4837" ry="18"/>
<text text-anchor="middle" x="195.0041" y="-15.3161" font-family="Times,serif" font-size="14.00" fill="#000000">JobGraph</text>
</g>
<!-- StreamGraph&#45;&gt;JobGraph -->
<g id="edge1" class="edge">
<title>StreamGraph&#45;&gt;JobGraph</title>
<path fill="none" stroke="#000000" d="M114.8755,-19.5161C123.1695,-19.5161 131.6872,-19.5161 139.9299,-19.5161"/>
<polygon fill="#000000" stroke="#000000" points="140.1861,-23.0162 150.1861,-19.5161 140.1861,-16.0162 140.1861,-23.0162"/>
</g>
<!-- ExecutionGraph -->
<g id="node3" class="node">
<title>ExecutionGraph</title>
<ellipse fill="none" stroke="#000000" cx="343.556" cy="-19.5161" rx="68.1201" ry="18"/>
<text text-anchor="middle" x="343.556" y="-15.3161" font-family="Times,serif" font-size="14.00" fill="#000000">ExecutionGraph</text>
</g>
<!-- JobGraph&#45;&gt;ExecutionGraph -->
<g id="edge2" class="edge">
<title>JobGraph&#45;&gt;ExecutionGraph</title>
<path fill="none" stroke="#000000" d="M239.5746,-19.5161C247.6828,-19.5161 256.3566,-19.5161 265.1078,-19.5161"/>
<polygon fill="#000000" stroke="#000000" points="265.3873,-23.0162 275.3873,-19.5161 265.3872,-16.0162 265.3873,-23.0162"/>
</g>
<!-- 物理执行图 -->
<g id="node4" class="node">
<title>物理执行图</title>
<ellipse fill="none" stroke="#000000" cx="508.4272" cy="-19.5161" rx="60.623" ry="19.5322"/>
<text text-anchor="middle" x="508.4272" y="-18.116" font-family="Times,serif" font-size="14.00" fill="#000000">物理执行图</text>
</g>
<!-- ExecutionGraph&#45;&gt;物理执行图 -->
<g id="edge3" class="edge">
<title>ExecutionGraph&#45;&gt;物理执行图</title>
<path fill="none" stroke="#000000" d="M412.0439,-19.5161C420.4094,-19.5161 428.9723,-19.5161 437.3744,-19.5161"/>
<polygon fill="#000000" stroke="#000000" points="437.5192,-23.0162 447.5192,-19.5161 437.5192,-16.0162 437.5192,-23.0162"/>
</g>
</g>
</svg>
