<?xml version="1.0" encoding="UTF-8" standalone="no"?>
<!DOCTYPE svg PUBLIC "-//W3C//DTD SVG 1.1//EN"
 "http://www.w3.org/Graphics/SVG/1.1/DTD/svg11.dtd">
<!-- Generated by graphviz version 2.40.1 (20161225.0304)
 -->
<!-- Title: g Pages: 1 -->
<svg width="435pt" height="44pt"
 viewBox="0.00 0.00 434.96 44.00" xmlns="http://www.w3.org/2000/svg" xmlns:xlink="http://www.w3.org/1999/xlink">
<g id="graph0" class="graph" transform="scale(1 1) rotate(0) translate(4 40)">
<title>g</title>
<polygon fill="#ffffff" stroke="transparent" points="-4,4 -4,-40 430.9561,-40 430.9561,4 -4,4"/>
<!-- environment -->
<g id="node1" class="node">
<title>environment</title>
<ellipse fill="none" stroke="#000000" cx="54.8035" cy="-18" rx="54.6076" ry="18"/>
<text text-anchor="middle" x="54.8035" y="-13.8" font-family="Times,serif" font-size="14.00" fill="#000000">environment</text>
</g>
<!-- source -->
<g id="node2" class="node">
<title>source</title>
<ellipse fill="none" stroke="#000000" cx="178.794" cy="-18" rx="33.3752" ry="18"/>
<text text-anchor="middle" x="178.794" y="-13.8" font-family="Times,serif" font-size="14.00" fill="#000000">source</text>
</g>
<!-- environment&#45;&gt;source -->
<g id="edge1" class="edge">
<title>environment&#45;&gt;source</title>
<path fill="none" stroke="#000000" d="M109.9096,-18C118.4591,-18 127.1856,-18 135.4278,-18"/>
<polygon fill="#000000" stroke="#000000" points="135.5592,-21.5001 145.5592,-18 135.5591,-14.5001 135.5592,-21.5001"/>
</g>
<!-- transform -->
<g id="node3" class="node">
<title>transform</title>
<ellipse fill="none" stroke="#000000" cx="292.4686" cy="-18" rx="44.475" ry="18"/>
<text text-anchor="middle" x="292.4686" y="-13.8" font-family="Times,serif" font-size="14.00" fill="#000000">transform</text>
</g>
<!-- source&#45;&gt;transform -->
<g id="edge2" class="edge">
<title>source&#45;&gt;transform</title>
<path fill="none" stroke="#000000" d="M212.2853,-18C220.2874,-18 229.0368,-18 237.7211,-18"/>
<polygon fill="#000000" stroke="#000000" points="237.8371,-21.5001 247.837,-18 237.837,-14.5001 237.8371,-21.5001"/>
</g>
<!-- sink -->
<g id="node4" class="node">
<title>sink</title>
<ellipse fill="none" stroke="#000000" cx="399.9561" cy="-18" rx="27" ry="18"/>
<text text-anchor="middle" x="399.9561" y="-13.8" font-family="Times,serif" font-size="14.00" fill="#000000">sink</text>
</g>
<!-- transform&#45;&gt;sink -->
<g id="edge3" class="edge">
<title>transform&#45;&gt;sink</title>
<path fill="none" stroke="#000000" d="M337.1191,-18C345.6359,-18 354.4665,-18 362.7215,-18"/>
<polygon fill="#000000" stroke="#000000" points="362.8032,-21.5001 372.8031,-18 362.8031,-14.5001 362.8032,-21.5001"/>
</g>
</g>
</svg>
